<svg width="111" height="24" viewBox="0 0 111 24" fill="none" xmlns="http://www.w3.org/2000/svg">
<path d="M90.7345 11.5C90.7345 15.6421 87.4361 19 83.3673 19C79.2984 19 76 15.6421 76 11.5C76 7.35786 79.2984 4 83.3673 4C87.4361 4 90.7345 7.35786 90.7345 11.5Z" fill="#B60000"/>
<path d="M5.643 13.414C5.42767 13.414 5.25667 13.3317 5.13 13.167C5.016 12.9897 4.959 12.7553 4.959 12.464C4.959 11.818 5.225 11.495 5.757 11.495H7.771C8.23967 11.495 8.569 11.362 8.759 11.096C8.96167 10.83 9.063 10.5387 9.063 10.222V7.106C9.063 6.78933 8.96167 6.498 8.759 6.232C8.569 5.966 8.23967 5.833 7.771 5.833H3.781V18.24C3.781 18.848 3.401 19.152 2.641 19.152C1.90633 19.152 1.539 18.848 1.539 18.24V5.054C1.539 4.598 1.653 4.294 1.881 4.142C2.109 3.99 2.38767 3.914 2.717 3.914H8.265C8.58167 3.914 8.91733 3.98367 9.272 4.123C9.62667 4.26233 9.96867 4.43967 10.298 4.655H10.279C10.6083 4.89567 10.8617 5.21233 11.039 5.605C11.2163 5.985 11.305 6.42833 11.305 6.935V10.374C11.305 11.4 10.963 12.1663 10.279 12.673C9.94967 12.9137 9.614 13.0973 9.272 13.224C8.93 13.3507 8.59433 13.414 8.265 13.414H5.643ZM15.4089 19.019C14.9402 19.019 14.6235 18.8987 14.4589 18.658C14.2942 18.4173 14.2119 18.1513 14.2119 17.86V5.054C14.2119 4.76267 14.2942 4.503 14.4589 4.275C14.6235 4.03433 14.9402 3.914 15.4089 3.914H22.0209C22.4895 3.914 22.7365 4.23067 22.7619 4.864C22.7872 5.51 22.5402 5.833 22.0209 5.833H16.4539V17.1H22.3629C22.8315 17.1 23.0722 17.4103 23.0849 18.031C23.1102 18.6897 22.8695 19.019 22.3629 19.019H15.4089ZM21.3179 11.153C21.3179 11.5963 21.1595 11.97 20.8429 12.274C20.5389 12.578 20.1652 12.73 19.7219 12.73C19.2912 12.73 18.9239 12.578 18.6199 12.274C18.3159 11.97 18.1639 11.5963 18.1639 11.153C18.1639 10.7097 18.3159 10.336 18.6199 10.032C18.9239 9.728 19.2912 9.576 19.7219 9.576C20.1652 9.576 20.5389 9.728 20.8429 10.032C21.1595 10.336 21.3179 10.7097 21.3179 11.153ZM30.2131 18.24C30.2131 18.848 29.8331 19.152 29.0731 19.152C28.3258 19.152 27.9521 18.848 27.9521 18.24V5.833H24.6271C24.1711 5.833 23.9305 5.51 23.9051 4.864C23.9051 4.23067 24.1458 3.914 24.6271 3.914H33.5381C34.0195 3.914 34.2475 4.23067 34.2221 4.864C34.2221 5.51 33.9941 5.833 33.5381 5.833H30.2131V18.24ZM46.1614 15.96C46.1614 16.986 45.8194 17.7523 45.1354 18.259C44.8061 18.4997 44.4641 18.6897 44.1094 18.829C43.7674 18.9557 43.4317 19.019 43.1024 19.019H38.9604C38.6311 19.019 38.2891 18.9557 37.9344 18.829C37.5924 18.6897 37.2567 18.4997 36.9274 18.259C36.5981 18.0057 36.3447 17.6953 36.1674 17.328C35.9901 16.948 35.9014 16.492 35.9014 15.96V6.935C35.9014 6.42833 35.9901 5.985 36.1674 5.605C36.3447 5.21233 36.5981 4.89567 36.9274 4.655H36.9084C37.2377 4.43967 37.5797 4.26233 37.9344 4.123C38.2891 3.98367 38.6311 3.914 38.9604 3.914H43.1024C43.4317 3.914 43.7737 3.98367 44.1284 4.123C44.4831 4.26233 44.8251 4.43967 45.1544 4.655H45.1354C45.4647 4.89567 45.7181 5.21233 45.8954 5.605C46.0727 5.985 46.1614 6.42833 46.1614 6.935V8.246C46.1614 8.854 45.7814 9.158 45.0214 9.158C44.2741 9.158 43.9004 8.854 43.9004 8.246V7.106C43.9004 6.78933 43.8054 6.498 43.6154 6.232C43.4254 5.966 43.0961 5.833 42.6274 5.833H39.4354C38.9667 5.833 38.6374 5.966 38.4474 6.232C38.2574 6.498 38.1624 6.78933 38.1624 7.106V15.808C38.1624 16.1373 38.2574 16.435 38.4474 16.701C38.6374 16.967 38.9667 17.1 39.4354 17.1H42.6274C43.0961 17.1 43.4254 16.967 43.6154 16.701C43.8054 16.435 43.9004 16.1373 43.9004 15.808V14.706C43.9004 14.1107 44.2741 13.813 45.0214 13.813C45.7814 13.813 46.1614 14.1107 46.1614 14.706V15.96ZM51.2457 18.202C51.2457 18.81 50.8657 19.114 50.1057 19.114C49.3583 19.114 48.9847 18.81 48.9847 18.202V4.731C48.9847 4.123 49.3583 3.819 50.1057 3.819C50.8657 3.819 51.2457 4.123 51.2457 4.731V18.202ZM59.3625 18.24C59.3625 18.848 58.9825 19.152 58.2225 19.152C57.4752 19.152 57.1015 18.848 57.1015 18.24V5.833H53.7765C53.3205 5.833 53.0799 5.51 53.0545 4.864C53.0545 4.23067 53.2952 3.914 53.7765 3.914H62.6875C63.1689 3.914 63.3969 4.23067 63.3715 4.864C63.3715 5.51 63.1435 5.833 62.6875 5.833H59.3625V18.24ZM70.6178 18.24C70.6178 18.848 70.2441 19.152 69.4968 19.152C68.7495 19.152 68.3758 18.848 68.3758 18.24V13.186L64.1198 5.092C64.0438 4.92733 64.0058 4.75633 64.0058 4.579C64.0058 4.21167 64.2211 3.93933 64.6518 3.762H64.6328C64.9115 3.66067 65.1331 3.61 65.2978 3.61C65.6271 3.61 65.8805 3.77467 66.0578 4.104L69.5158 10.602C69.7691 10.1207 70.0415 9.60767 70.3328 9.063C70.6241 8.50567 70.9155 7.942 71.2068 7.372C71.5108 6.802 71.8085 6.23833 72.0998 5.681C72.3911 5.12367 72.6698 4.598 72.9358 4.104C73.0371 3.952 73.1448 3.83167 73.2588 3.743C73.3855 3.65433 73.5375 3.61 73.7148 3.61C73.8921 3.61 74.1011 3.66067 74.3418 3.762H74.3228C74.7661 3.952 74.9878 4.23067 74.9878 4.598C74.9878 4.674 74.9815 4.75633 74.9688 4.845C74.9561 4.921 74.9245 5.00333 74.8738 5.092C74.7598 5.32 74.6141 5.59867 74.4368 5.928C74.2721 6.25733 74.0315 6.71967 73.7148 7.315C73.4108 7.89767 73.0118 8.664 72.5178 9.614C72.0238 10.5513 71.3905 11.761 70.6178 13.243V18.24Z" fill="#5D0000"/>
</svg>
